<?xml version="1.0" encoding="UTF-8" standalone="no"?>
<!-- Created with Inkscape (http://www.inkscape.org/) -->
<svg
   width="500"
   height="500"
   viewBox="0 0 500 500"
   version="1.1"
   id="svg1"
   xml:space="preserve"
   inkscape:version="1.3.2 (091e20e, 2023-11-25)"
   sodipodi:docname="modron.svg"
   inkscape:export-xdpi="96"
   inkscape:export-ydpi="96"
   xmlns:inkscape="http://www.inkscape.org/namespaces/inkscape"
   xmlns:sodipodi="http://sodipodi.sourceforge.net/DTD/sodipodi-0.dtd"
   xmlns="http://www.w3.org/2000/svg"
   xmlns:svg="http://www.w3.org/2000/svg"
   xmlns:rdf="http://www.w3.org/1999/02/22-rdf-syntax-ns#"
   xmlns:cc="http://creativecommons.org/ns#"
   xmlns:dc="http://purl.org/dc/elements/1.1/"><defs
     id="defs1" /><sodipodi:namedview
     id="base"
     pagecolor="#ffffff"
     bordercolor="#000000"
     borderopacity="0.3"
     inkscape:pageopacity="0.0"
     inkscape:pageshadow="2"
     inkscape:zoom="0.98994949"
     inkscape:cx="290.92393"
     inkscape:cy="262.13459"
     inkscape:document-units="mm"
     inkscape:showpageshadow="2"
     inkscape:pagecheckerboard="true"
     inkscape:deskcolor="#d1d1d1"
     inkscape:window-width="1696"
     inkscape:window-height="916"
     inkscape:window-x="2407"
     inkscape:window-y="265"
     inkscape:window-maximized="0"
     inkscape:current-layer="svg1"
     showguides="true"
     guidecolor="#3ae500"
     guideopacity="0.6"
     guidehicolor="#008bff"
     guidehiopacity="0.49803922"><sodipodi:guide
       position="119.73464,148.49848"
       orientation="1,0"
       id="guide1"
       inkscape:locked="false" /><sodipodi:guide
       position="312.67857,409.82143"
       orientation="0,-1"
       id="guide2"
       inkscape:locked="false" /><sodipodi:guide
       position="244.89886,90.130607"
       orientation="0,-1"
       id="guide3"
       inkscape:locked="false" /><sodipodi:guide
       position="380.26786,121.78572"
       orientation="1,0"
       id="guide4"
       inkscape:locked="false" /></sodipodi:namedview><metadata
     id="metadata1"><rdf:RDF><cc:Work
         rdf:about=""><dc:format>image/svg+xml</dc:format><dc:type
           rdf:resource="http://purl.org/dc/dcmitype/StillImage" /></cc:Work></rdf:RDF></metadata><rect
     style="fill:#ffffff;fill-opacity:1;stroke-width:1.78478"
     id="rect1"
     width="500"
     height="500"
     x="1.6071428"
     y="0.26785713"
     rx="75"
     ry="75" /><path
     id="path4"
     style="stroke-width:0.349706"
     d="m 218.59898,259.38678 -0.23011,13.21698 h 31.05283 v -13.14664 z m 40.66794,-6.08955 -11.71113,6.15573 1.86591,0.005 v 13.14664 h -1.76933 l 11.61455,5.33066 z m -50.52209,0.0583 v 24.63778 l 11.74272,-5.38967 h -2.11868 l 0.23011,-13.21698 1.62626,0.004 z m 0.1883,150.40025 c -1.49533,-3.06834 -12.28121,-24.61695 -12.64215,-25.25718 -0.41975,-0.74451 -5.75273,-11.50397 -9.53098,-19.22902 -3.67201,-7.50786 -4.63708,-9.86862 -4.34522,-10.6292 l 0.17519,-0.45654 20.36444,0.1989 c 11.20044,0.10941 21.90963,0.20004 23.79819,0.20146 l 3.43375,0.002 v 13.27676 13.27678 l -1.23817,2.82372 c -1.22914,2.80308 -1.74146,4.02284 -3.04496,7.24946 -2.00785,4.97014 -5.66974,13.65127 -7.14562,16.93985 -0.37667,0.83936 -0.9332,2.10985 -1.2367,2.8233 l -0.55183,1.2972 h -3.40437 -3.40439 z m 13.01222,2.40769 c 0,-0.10016 1.20189,-2.84722 2.30885,-5.27715 0.24098,-0.52899 0.43815,-1.0403 0.43815,-1.13623 0,-0.0959 0.3262,-0.89928 0.7249,-1.7852 1.57173,-3.49253 5.37009,-12.44791 6.44182,-15.1879 1.42126,-3.63365 1.9831,-4.72498 2.25991,-4.38977 0.11987,0.14519 0.64892,1.29412 1.1756,2.55315 0.52667,1.25905 1.7904,4.24986 2.80825,6.64625 1.01786,2.39639 1.85066,4.41846 1.85066,4.49347 0,0.075 1.30483,3.18011 2.89962,6.9002 1.59479,3.72011 2.89961,6.88302 2.89961,7.0287 0,0.14569 -5.35666,0.26487 -11.90369,0.26487 -6.54702,0 -11.90368,-0.0498 -11.90368,-0.11037 z m 28.22878,-1.18674 c -0.3051,-0.71345 -0.8115,-1.89906 -1.1253,-2.63471 -0.31382,-0.73562 -0.84045,-1.9299 -1.17028,-2.65394 -0.32986,-0.72406 -0.59971,-1.38042 -0.59971,-1.45861 0,-0.0782 -0.49283,-1.21885 -1.09518,-2.53483 -1.36957,-2.99219 -1.72417,-3.80565 -2.57312,-5.90274 -0.64919,-1.60368 -1.99276,-4.84911 -4.48569,-10.83541 l -1.14396,-2.747 -0.088,-13.98419 -0.088,-13.98418 21.29532,0.18377 c 11.71243,0.10099 22.42845,0.17887 23.81339,0.17286 l 2.5181,-0.0108 v 0.39541 c 0,0.21746 -0.60154,1.62531 -1.33674,3.12853 -0.73522,1.50321 -2.12581,4.38134 -3.09021,6.39581 -3.21226,6.70991 -11.84082,24.1481 -20.72843,41.89179 l -2.94299,5.87555 h -3.30221 -3.30221 z M 147.0132,358.36018 c -3.32903,-0.76029 -4.73096,-1.20798 -4.73096,-1.51077 0,-0.14027 0.92712,-0.84107 2.06026,-1.55736 1.13314,-0.71628 2.63209,-1.69386 3.33104,-2.17241 0.69893,-0.47854 1.35001,-0.87007 1.44684,-0.87007 0.0968,0 1.1045,-0.64079 2.23928,-1.42398 1.13476,-0.78319 2.61488,-1.80141 3.28915,-2.2627 0.67426,-0.4613 1.49379,-1.13472 1.82119,-1.49647 0.32739,-0.36177 1.73295,-1.55935 3.12347,-2.66128 1.39055,-1.10194 2.52824,-2.0959 2.52824,-2.20879 0,-0.24273 -17.4138,-17.67156 -32.5062,-32.53427 l -10.6828,-10.5202 2.28917,0.13754 c 2.90358,0.17448 17.15792,1.61115 20.00853,2.01664 1.18416,0.16843 4.34322,0.5168 7.02012,0.77414 2.67692,0.25734 5.66104,0.54442 6.6314,0.63795 1.19016,0.1147 1.84956,0.33172 2.02635,0.66683 0.14415,0.27325 1.17555,3.7932 2.29203,7.82214 2.4633,8.88908 2.62793,9.46489 3.97073,13.88764 1.08628,3.57788 3.36203,12.07975 4.31853,16.1334 l 0.52991,2.24578 -0.38651,1.56951 c -0.21257,0.86322 -0.70122,2.25625 -1.08588,3.09562 -0.38466,0.83936 -0.89981,2.00682 -1.14479,2.59438 -0.56308,1.35056 -2.96336,4.02554 -4.65894,5.19212 -2.50716,1.72497 -6.68735,3.03636 -9.60966,3.01472 -0.92329,-0.007 -2.77753,-0.26339 -4.1205,-0.57011 z m 27.31742,-60.44024 v -44.86773 h 10.98803 10.988 v 17.24069 17.24068 l -1.75503,0.91146 c -1.92269,0.99854 -3.38464,1.85089 -3.8786,2.26133 -0.17502,0.1454 -1.77697,1.17553 -3.55991,2.28916 -4.94743,3.0902 -7.59371,4.9152 -7.59371,5.23702 0,0.16027 2.42132,2.21973 5.38074,4.57657 2.9594,2.35684 5.64769,4.62457 5.97399,5.0394 0.32629,0.41482 0.73389,0.75422 0.90573,0.75422 0.51552,0 4.19264,3.37178 4.10112,3.76056 -0.0466,0.19797 -0.0251,0.25088 0.0477,0.11758 0.1721,-0.31476 1.73702,0.86599 4.95623,3.73955 1.42693,1.27369 3.24842,2.83828 4.04778,3.47686 0.80335,0.64178 1.36244,1.30822 1.25003,1.49008 -0.11518,0.18622 -0.0616,0.24143 0.1232,0.12721 0.28918,-0.17872 1.36565,0.55815 2.83232,1.93883 4.45817,4.19674 7.69673,6.89555 6.37162,5.30968 -0.26596,-0.3183 -1.63309,-2.02092 -3.03805,-3.78357 -1.40494,-1.76266 -3.05632,-3.75424 -3.66969,-4.42573 -0.61338,-0.67149 -2.18756,-2.45704 -3.4982,-3.96789 -1.31064,-1.51086 -2.61005,-2.95303 -2.88758,-3.20484 -0.27751,-0.25181 -2.00611,-2.16889 -3.84132,-4.2602 -1.8352,-2.09129 -4.31823,-4.8383 -5.51783,-6.10446 -2.70652,-2.85661 -3.77072,-4.13327 -3.77072,-4.52349 0,-0.45329 4.36924,-4.18826 4.8995,-4.18826 0.24268,0 4.34635,4.59775 6.54633,7.33451 0.50364,0.6265 1.80846,2.1302 2.89961,3.34157 1.99086,2.21015 4.42012,5.05247 7.9621,9.316 1.04598,1.25903 2.22266,2.60309 2.61486,2.98679 0.3922,0.38369 1.24637,1.41382 1.89815,2.28917 0.65177,0.87534 1.55775,1.93493 2.01328,2.35461 0.45553,0.41967 1.3251,1.4498 1.93239,2.28916 0.6073,0.83937 1.38458,1.80094 1.7273,2.13681 0.34271,0.33591 1.2195,1.36603 1.94841,2.28918 1.92268,2.43505 7.27668,8.43995 9.05228,10.15278 l 1.52613,1.47216 1.83133,-1.92645 c 1.00722,-1.05955 2.10603,-2.2686 2.44177,-2.68676 0.9285,-1.15648 6.35027,-7.44869 6.56797,-7.62243 0.1052,-0.084 0.85441,-0.97671 1.66497,-1.98396 0.81056,-1.00722 1.76205,-2.11674 2.11442,-2.46556 0.35236,-0.34883 1.20629,-1.31029 1.89762,-2.13657 0.69134,-0.82627 1.99616,-2.37682 2.89962,-3.44565 0.90345,-1.06884 1.95082,-2.37367 2.32748,-2.89961 0.37665,-0.52596 0.92605,-1.16388 1.22088,-1.4176 0.29485,-0.25372 1.0811,-1.14651 1.74724,-1.98395 1.59219,-2.00167 3.65044,-4.41527 8.70857,-10.21213 0.9233,-1.05816 2.18643,-2.62628 2.80698,-3.48472 1.82286,-2.52167 2.72271,-3.54474 3.11781,-3.54474 0.20389,0 0.77408,0.42431 1.26714,0.94291 1.18082,1.242 2.30567,1.80409 3.61029,1.80409 1.96225,0 1.90498,0.0934 -4.02242,6.56229 -0.61528,0.67148 -2.18194,2.45704 -3.48147,3.96789 -1.29952,1.51084 -3.10967,3.57111 -4.02256,4.57833 -1.5309,1.68912 -4.24051,4.83317 -7.33281,8.50848 -1.75022,2.08022 -3.4363,4.01083 -5.22401,5.98164 -0.8415,0.92768 -1.80294,2.02535 -2.13656,2.43926 l -0.60657,0.75257 1.11568,-0.90518 c 0.61362,-0.49784 2.53007,-2.14134 4.25879,-3.65218 1.72871,-1.51086 3.63027,-3.13419 4.22571,-3.60742 1.34424,-1.06834 3.98337,-3.32009 5.80714,-4.95474 0.75896,-0.68024 2.20402,-1.9164 3.21125,-2.747 1.00724,-0.83062 1.90001,-1.58112 1.98394,-1.66778 0.0841,-0.0867 1.38877,-1.20727 2.89963,-2.49019 1.51084,-1.28292 3.87615,-3.29564 5.25623,-4.47273 1.38008,-1.1771 3.68669,-3.0763 5.12581,-4.22048 l 2.61656,-2.08032 -0.0896,-0.75699 c -0.0957,-0.80868 -2.04239,-2.45784 -4.31578,-3.65623 -0.69731,-0.36758 -1.88593,-1.0629 -2.64135,-1.54515 -0.75544,-0.48225 -2.33496,-1.44013 -3.51006,-2.12862 -1.17511,-0.68848 -2.92633,-1.73391 -3.89159,-2.32316 l -1.75502,-1.07137 v -17.23535 -17.23534 l 10.91169,0.0802 10.91171,0.0802 0.0773,44.79143 0.0773,44.79142 h -59.8246 -59.82464 z m 31.12659,22.42648 c -0.21235,-0.25586 -0.44895,-0.40234 -0.52577,-0.32553 -0.21168,0.21167 0.2184,0.79075 0.58728,0.79075 0.20238,0 0.17924,-0.17513 -0.0614,-0.46522 z m -54.1709,-23.66391 c -1.00723,-0.13295 -4.30364,-0.46276 -7.32534,-0.73289 -3.02171,-0.27015 -7.62295,-0.69195 -10.22496,-0.93733 -2.60203,-0.24538 -7.20325,-0.66468 -10.22496,-0.93177 -3.0217,-0.26708 -5.53198,-0.52336 -5.57838,-0.56947 -0.10797,-0.10724 1.93243,-1.86337 3.64516,-3.13724 0.72753,-0.54113 2.83363,-2.15252 4.68022,-3.58091 1.8466,-1.42839 3.90686,-3.0106 4.57835,-3.51603 0.67147,-0.50541 3.22986,-2.46511 5.68528,-4.35487 2.45542,-1.88976 5.65579,-4.3287 7.11197,-5.41988 1.45618,-1.09116 3.1687,-2.39599 3.80564,-2.89961 3.9204,-3.09986 18.47146,-14.10642 21.06073,-15.93056 l 1.81671,-1.27989 0.29128,0.36422 c 0.1955,0.24443 -0.50026,2.72321 -2.11551,7.53693 -2.62249,7.81552 -3.48368,10.49025 -3.98005,12.36153 -0.17811,0.67149 -0.58286,1.77931 -0.89945,2.46184 -0.31659,0.68252 -0.57562,1.51349 -0.57562,1.84659 0,0.3331 -0.1291,0.73614 -0.28691,0.89561 -0.15779,0.15949 -1.0588,2.62492 -2.0022,5.47875 -0.94343,2.85383 -2.04284,6.08157 -2.44313,7.17272 -0.40029,1.09118 -0.95122,2.77372 -1.22428,3.739 l -0.49647,1.75502 -1.73337,-0.04 c -0.95336,-0.022 -2.55747,-0.1488 -3.56471,-0.28175 z m 151.54304,-38.90817 v -16.9847 l 1.2972,0.20207 c 3.38365,0.52705 15.87541,2.82974 17.47401,3.22112 0.67148,0.16438 2.59438,0.50382 4.27311,0.75432 1.67872,0.25049 4.08234,0.64943 5.34139,0.88653 5.17608,0.97475 18.29432,3.31705 24.11259,4.30537 7.06881,1.20075 8.02567,1.40352 7.73951,1.6401 -0.25525,0.21102 -3.45596,1.48821 -6.82384,2.72294 -4.35102,1.59519 -9.40201,3.51345 -10.2711,3.90074 -0.52898,0.23574 -1.07837,0.42945 -1.22088,0.4305 -0.1425,9.1e-4 -0.61491,0.18755 -1.0498,0.41448 -0.43489,0.22694 -2.15176,0.87271 -3.81529,1.43504 -1.66352,0.56235 -3.36793,1.19908 -3.78762,1.41498 -0.41969,0.21589 -0.87965,0.39337 -1.02215,0.3944 -0.14251,9.2e-4 -0.6919,0.19883 -1.22091,0.43953 -0.52898,0.24073 -2.88469,1.14106 -5.2349,2.00076 -2.35022,0.85968 -5.02854,1.83988 -5.95183,2.1782 -0.92332,0.3383 -2.09078,0.80952 -2.59441,1.04715 -0.50361,0.23761 -3.59399,1.41454 -6.86751,2.61537 -9.25453,3.3949 -9.76168,3.58517 -10.07925,3.78143 -0.19291,0.11927 -0.29832,-5.81675 -0.29832,-16.80033 z m 55.09269,-11.61489 c -2.18234,-0.40231 -5.54742,-1.01849 -7.47795,-1.3693 -1.93053,-0.35081 -5.50165,-1.05653 -7.93579,-1.56829 -2.43415,-0.51175 -5.45585,-1.10705 -6.71489,-1.32289 -1.25906,-0.21583 -2.90726,-0.53034 -3.66268,-0.6989 -0.75543,-0.16858 -2.1976,-0.47013 -3.20483,-0.67014 -1.00724,-0.19999 -1.98992,-0.40798 -2.18373,-0.4622 -0.21189,-0.0593 -0.43187,-1.17181 -0.55168,-2.79003 -0.10965,-1.4803 -0.45966,-5.02642 -0.77789,-7.88024 -0.31824,-2.85384 -0.73041,-6.837 -0.91595,-8.85147 -0.18554,-2.01447 -0.46572,-4.62412 -0.62263,-5.79922 -0.1569,-1.17511 -0.4226,-3.57873 -0.59046,-5.34139 -0.16783,-1.76267 -0.45571,-4.50968 -0.63973,-6.10447 -0.184,-1.59479 -0.49402,-4.82251 -0.68893,-7.17273 l -0.35434,-4.2731 -3.20485,-0.21169 c -5.72719,-0.37828 -8.65297,-1.14359 -11.67103,-3.05286 -1.58378,-1.00192 -4.15504,-3.66995 -5.32889,-5.52945 -0.81836,-1.29639 -2.03969,-4.81441 -2.37151,-6.8311 -0.23595,-1.43408 -0.78092,-2.05352 -1.59799,-1.81633 -0.30183,0.0876 -1.71625,0.24094 -3.14317,0.34072 -1.42692,0.0998 -3.55585,0.31227 -4.73095,0.47221 -2.35108,0.31999 -14.56371,1.25085 -14.69453,1.12002 -0.045,-0.045 -0.37821,-1.31262 -0.7404,-2.81688 -0.36219,-1.50425 -1.13016,-4.43395 -1.70662,-6.51042 -0.57643,-2.07649 -0.98992,-3.83358 -0.91884,-3.90466 0.0711,-0.0711 1.96615,-0.60154 4.21126,-1.17879 5.60101,-1.44012 6.40953,-1.67247 12.48903,-3.58918 2.93039,-0.92388 6.35812,-1.98638 7.61716,-2.36109 1.25905,-0.37472 2.32697,-0.71329 2.37316,-0.75238 0.0462,-0.0391 -0.19419,-0.71997 -0.53415,-1.51307 -0.7279,-1.69812 -0.78884,-3.35004 -0.17755,-4.81308 0.45546,-1.09005 2.64661,-3.29322 3.27525,-3.29322 0.19615,0 0.57346,-0.19232 0.83849,-0.42738 1.19403,-1.05903 8.38217,-2.24692 11.03229,-1.82315 l 1.22945,0.1966 -0.67806,0.72175 c -0.37292,0.39695 -0.78879,0.72174 -0.92413,0.72174 -0.2458,0 -2.70678,1.49318 -4.96107,3.01008 -1.16813,0.78603 -2.92662,3.76727 -2.9272,4.96261 l -2.4e-4,0.49474 1.29719,-0.24331 c 0.71347,-0.13381 1.64057,-0.37391 2.06026,-0.53356 0.41969,-0.15965 2.44233,-0.7212 4.49479,-1.24789 2.05245,-0.52671 5.28018,-1.48516 7.17274,-2.12991 1.89254,-0.64474 4.81449,-1.54296 6.49322,-1.99604 1.67872,-0.45307 3.32692,-0.94686 3.66266,-1.09728 0.87519,-0.39213 7.02093,-2.34542 9.00408,-2.86175 0.92329,-0.24039 4.01367,-1.19332 6.8675,-2.11762 2.85384,-0.92431 5.64553,-1.77445 6.20376,-1.88923 l 1.01495,-0.20867 -0.46426,0.89779 c -0.93097,1.80031 -1.76898,5.74131 -1.93088,9.08054 l -0.16276,3.35745 0.79087,3.81529 c 0.89032,4.29505 2.03106,6.91346 4.46521,10.2493 l 1.54128,2.11221 -3.74514,0.19788 c -2.05983,0.10881 -4.63791,0.33803 -5.72908,0.50931 -1.09117,0.17131 -3.08276,0.39572 -4.42572,0.49871 -1.34298,0.10304 -3.33455,0.31714 -4.42573,0.47588 -1.09118,0.15876 -3.56348,0.4322 -5.49402,0.60768 -1.93052,0.17545 -5.36428,0.52004 -7.63055,0.76573 -16.46837,1.78542 -16.62558,1.79577 -17.59816,1.15851 -0.46032,-0.30161 -1.0082,-0.38256 -1.64405,-0.2429 l -0.95368,0.20946 0.20193,0.80949 c 0.70506,2.82644 3.58998,6.27021 7.12883,8.50977 2.60982,1.65162 4.97,3.15643 6.06801,3.86884 0.54234,0.35188 1.49836,1.32653 2.12447,2.1659 0.62612,0.83935 1.55773,2.00683 2.07026,2.59439 0.51252,0.58756 1.58461,2.02973 2.38241,3.20484 4.06094,5.98142 8.45507,12.1953 11.13169,15.74164 0.88132,1.16771 1.60241,2.18659 1.60241,2.2642 0,0.0777 1.23296,1.82676 2.73991,3.88697 1.50694,2.06025 3.36922,4.63867 4.13837,5.72983 2.00626,2.84615 5.05849,7.07606 5.38125,7.45753 0.15154,0.17911 1.67866,2.3179 3.39359,4.75286 1.71494,2.43498 3.93157,5.52536 4.92584,6.86753 2.59948,3.50903 3.99695,5.43701 4.25768,5.87404 0.30105,0.50457 -0.0698,0.47344 -4.84456,-0.40678 z m -179.01309,-34.9225 v -35.40608 h 4.13032 4.13031 l 1.07008,-0.4471 1.07007,-0.4471 -0.0879,-2.83404 -0.0879,-2.83404 -8.57568,-0.081 -8.57567,-0.081 -0.415,-0.83469 -0.41498,-0.83469 -0.10989,0.83937 -0.10989,0.83935 h -3.03195 -3.03195 V 168.683 c 0,-0.23808 0.0798,-0.64087 0.17737,-0.89509 0.28249,-0.73617 4.55152,-4.1303 6.46731,-5.14192 0.96193,-0.50792 2.16099,-1.23233 2.66462,-1.60978 0.50361,-0.37745 1.60444,-1.0464 2.44629,-1.48655 l 1.53061,-0.80026 2.74249,0.3297 c 2.70368,0.32502 16.25414,0.43333 19.22453,0.15366 0.83936,-0.079 3.03696,-0.23277 4.88356,-0.34165 1.8466,-0.10893 3.76949,-0.31471 4.27313,-0.45738 0.50361,-0.14268 2.4265,-0.34028 4.2731,-0.4391 4.80146,-0.25696 21.74598,-2.27522 24.87565,-2.96294 0.75542,-0.166 2.41856,-0.42182 3.69586,-0.5685 1.2773,-0.14667 3.26888,-0.47555 4.42573,-0.73083 4.52178,-0.99786 7.98167,-1.70704 9.73394,-1.99518 2.78735,-0.45835 6.77412,-1.37055 12.66673,-2.8982 2.93777,-0.76162 5.75346,-1.39511 6.25707,-1.40776 1.20854,-0.0303 3.92065,0.6807 5.70618,1.49602 0.78818,0.35991 1.50101,0.65437 1.58406,0.65437 0.0831,0 1.46496,0.61808 3.07087,1.37351 1.60594,0.75542 3.02203,1.37441 3.14689,1.37551 0.12485,10e-4 0.61778,0.25965 1.0954,0.57454 l 0.86838,0.57253 -1.32621,0.63138 c -4.57759,2.17928 -10.79156,4.18121 -18.23794,5.87566 -2.08294,0.47398 -3.9828,0.93685 -4.22193,1.02861 l -0.43475,0.16682 0.0604,8.31727 c 0.0332,4.5745 0.0444,8.69499 0.0251,9.15664 l -0.0352,0.83935 -8.62254,-8e-5 -8.62254,-8e-5 0.0823,13.88771 0.0824,13.88772 h 4.57228 4.57226 v -10.53017 -10.5302 h 2.14401 2.14402 l -0.0233,10.45388 -0.0233,10.45388 5.05203,0.0837 5.05205,0.0837 0.0352,-12.14 c 0.0194,-6.67698 0.0108,-12.38033 -0.0191,-12.67412 -0.0299,-0.29377 -0.012,-0.53713 0.0411,-0.5408 0.0525,-0.004 3.7696,-0.0932 8.26019,-0.19882 l 8.16472,-0.19214 v 32.55051 32.5505 l -55.24532,0.002 -55.24529,0.002 z m 82.86795,-43.34186 c 0,-3.79791 -0.11049,-5.93366 -0.30522,-5.90159 -0.16786,0.0276 -2.43415,0.40115 -5.03616,0.83003 -6.50075,1.07148 -10.47117,1.65269 -14.95592,2.18932 -2.09841,0.25108 -4.0213,0.5187 -4.27312,0.5947 -0.693,0.20916 -11.84901,1.34369 -21.06035,2.14176 -4.62034,0.40031 -19.02205,1.36667 -20.36742,1.36667 h -1.60862 l -0.0387,0.53414 c -0.13348,1.83726 0.0719,3.8769 0.41206,4.09348 0.2144,0.13648 15.42964,0.21557 33.81167,0.17573 l 33.42189,-0.0724 z m 106.06488,0.93836 c -2.23302,-0.50765 -4.00942,-1.5693 -6.06446,-3.62431 -3.57865,-3.57866 -4.92544,-7.31084 -5.15345,-14.28099 l -0.14066,-4.30021 0.79234,-3.06823 c 0.43577,-1.68753 1.0722,-3.72116 1.41427,-4.51917 0.94497,-2.20452 3.40353,-4.85579 5.41582,-5.84031 l 1.72053,-0.84178 h 2.64763 2.64764 l 2.04357,1.03726 c 2.46588,1.25161 4.45783,3.33763 6.03385,6.3188 1.32417,2.50472 2.52204,6.44856 2.81158,9.25677 0.23255,2.2555 -0.22629,6.94204 -0.92526,9.45046 -1.16515,4.18137 -4.00087,8.07095 -6.98634,9.58272 -1.67373,0.84755 -4.51795,1.22437 -6.25706,0.82899 z m 5.60584,-4.41172 c 2.00084,-0.836 3.88226,-3.36139 4.62303,-6.20542 0.49057,-1.88338 0.616,-5.27713 0.19505,-5.27713 -0.14238,0 -0.51999,0.57906 -0.83913,1.28679 -0.31914,0.70774 -1.03133,1.73786 -1.58265,2.28917 l -1.00236,1.00238 h -1.39351 c -2.78124,0 -4.55245,-1.54209 -6.01957,-5.24085 l -0.80758,-2.036 v -2.45215 -2.45213 l 0.72366,-1.9937 c 0.90366,-2.48957 2.08939,-4.06974 3.49432,-4.65676 l 1.08529,-0.45348 1.65565,0.20687 1.65566,0.20686 -0.12399,-0.40776 c -0.0682,-0.22427 -0.87335,-0.79486 -1.78921,-1.26798 l -1.66522,-0.86023 -1.49409,0.18987 c -1.89969,0.2414 -3.36862,0.99403 -5.18153,2.65487 l -1.43813,1.31749 -0.72699,2.13656 c -0.41191,1.21055 -0.88224,3.65785 -1.08518,5.64661 l -0.35818,3.51006 0.80283,3.05224 c 0.44156,1.67872 1.23701,3.7695 1.76766,4.64619 1.79716,2.96901 5.21846,5.39937 7.79972,5.54064 0.3831,0.0209 1.15012,-0.15138 1.70445,-0.38301 z m -175.92007,-9.18406 c -8.95087,-0.88045 -10.00383,-1.02501 -10.2391,-1.40569 -0.23579,-0.38154 -2.04407,-9.66371 -3.2064,-16.45915 -0.50249,-2.93778 -1.18503,-6.85226 -1.51674,-8.69885 -0.3317,-1.8466 -0.94878,-5.48638 -1.37128,-8.08841 -0.42249,-2.60201 -1.03494,-6.2418 -1.36099,-8.08839 -0.32604,-1.8466 -0.88637,-5.07433 -1.24516,-7.17273 -0.3588,-2.09841 -0.84169,-4.84542 -1.0731,-6.104463 -0.23142,-1.259035 -0.51081,-3.010259 -0.62089,-3.891589 l -0.20013,-1.602414 h 42.4447 42.4447 l 0.14993,0.534138 c 0.0825,0.293772 0.2361,2.319689 0.3414,4.502037 0.10532,2.182341 0.38312,5.616101 0.61739,7.630571 0.23429,2.01447 0.5109,4.89882 0.61474,6.40967 0.25339,3.68692 1.65851,18.19537 1.81796,18.77119 0.0697,0.25182 0.27638,2.58676 0.45926,5.18879 0.18285,2.60203 0.38915,5.08712 0.45842,5.52241 l 0.12596,0.79147 -1.89043,0.84953 c -1.03975,0.46725 -2.25093,1.03579 -2.69153,1.26345 -0.95831,0.49512 -8.27528,3.02593 -10.64236,3.681 -0.92199,0.25515 -1.89827,0.58268 -2.16954,0.72785 -0.71779,0.38415 -8.29299,2.311 -12.59495,3.20367 -9.56528,1.98483 -16.87441,2.88269 -24.76424,3.04205 l -6.40967,0.12945 z" /></svg>
