<?xml version="1.0" encoding="UTF-8" standalone="no"?>
<!-- Created with Inkscape (http://www.inkscape.org/) -->

<svg
   width="228.97319mm"
   height="270.93378mm"
   viewBox="0 0 228.97319 270.93378"
   version="1.1"
   id="svg1"
   xml:space="preserve"
   sodipodi:docname="modron.svg"
   inkscape:version="1.3.1 (91b66b0, 2023-11-16)"
   xmlns:inkscape="http://www.inkscape.org/namespaces/inkscape"
   xmlns:sodipodi="http://sodipodi.sourceforge.net/DTD/sodipodi-0.dtd"
   xmlns="http://www.w3.org/2000/svg"
   xmlns:svg="http://www.w3.org/2000/svg"><sodipodi:namedview
     id="namedview1"
     pagecolor="#ffffff"
     bordercolor="#000000"
     borderopacity="0.25"
     inkscape:showpageshadow="2"
     inkscape:pageopacity="0.0"
     inkscape:pagecheckerboard="0"
     inkscape:deskcolor="#d1d1d1"
     inkscape:document-units="mm"
     inkscape:zoom="0.32593205"
     inkscape:cx="536.92173"
     inkscape:cy="883.61976"
     inkscape:window-width="1672"
     inkscape:window-height="841"
     inkscape:window-x="0"
     inkscape:window-y="627"
     inkscape:window-maximized="0"
     inkscape:current-layer="layer1" /><defs
     id="defs1" /><g
     inkscape:label="Layer 1"
     inkscape:groupmode="layer"
     id="layer1"
     transform="translate(-24.367692,-15.887269)"><path
       id="path4"
       style="stroke-width:0.303144"
       d="m 111.6342,159.49091 -0.19947,11.45718 h 26.91825 v -11.39621 z m 35.25315,-5.27875 -10.15184,5.33611 1.61747,0.004 v 11.39621 h -1.53375 l 10.06812,4.62091 z m -43.79526,0.0506 v 21.35735 l 10.17922,-4.67206 h -1.83658 l 0.19947,-11.45718 1.40973,0.003 z m 0.16324,130.37498 c -1.29624,-2.65981 -10.646015,-21.33928 -10.958905,-21.89427 -0.36386,-0.64539 -4.98677,-9.97226 -8.26195,-16.66875 -3.1831,-6.50821 -4.01968,-8.55464 -3.76667,-9.21396 l 0.15186,-0.39575 17.652985,0.17241 c 9.70914,0.0948 18.99244,0.17341 20.62955,0.17464 l 2.97656,0.002 v 11.50901 11.50902 l -1.07332,2.44775 c -1.06548,2.42986 -1.50959,3.48721 -2.63953,6.28422 -1.74051,4.30838 -4.91484,11.83365 -6.1942,14.68437 -0.32653,0.72761 -0.80896,1.82894 -1.07205,2.4474 l -0.47835,1.12448 h -2.9511 -2.9511 z m 11.27968,2.08711 c 0,-0.0868 1.04186,-2.46811 2.00144,-4.5745 0.20889,-0.45855 0.37981,-0.90178 0.37981,-0.98495 0,-0.0832 0.28277,-0.77955 0.62838,-1.54751 1.36246,-3.02751 4.65508,-10.79052 5.58411,-13.16569 1.23203,-3.14984 1.71906,-4.09586 1.95901,-3.80528 0.10393,0.12586 0.56252,1.12181 1.01908,2.21321 0.45655,1.09141 1.55201,3.684 2.43434,5.76132 0.88234,2.07732 1.60425,3.83015 1.60425,3.89518 0,0.065 1.13109,2.75669 2.51354,5.98147 1.38245,3.22479 2.51354,5.96657 2.51354,6.09285 0,0.12628 -4.64344,0.2296 -10.31875,0.2296 -5.67531,0 -10.31875,-0.0431 -10.31875,-0.0957 z m 24.47022,-1.02878 c -0.26448,-0.61846 -0.70345,-1.64622 -0.97548,-2.2839 -0.27203,-0.63769 -0.72854,-1.67295 -1.01446,-2.30059 -0.28593,-0.62764 -0.51986,-1.19662 -0.51986,-1.26439 0,-0.0678 -0.42721,-1.05657 -0.94935,-2.19733 -1.18722,-2.59379 -1.49461,-3.29894 -2.23052,-5.11681 -0.56275,-1.39015 -1.72743,-4.20347 -3.88844,-9.39271 l -0.99164,-2.38125 -0.0763,-12.12224 -0.0763,-12.12224 18.45991,0.1593 c 10.15296,0.0876 19.44218,0.15505 20.64273,0.14985 l 2.18281,-0.009 v 0.34275 c 0,0.18851 -0.52144,1.4089 -1.15876,2.71198 -0.63732,1.30307 -1.84275,3.79798 -2.67874,5.54423 -2.78456,5.81651 -10.26427,20.93287 -17.96852,36.31406 l -2.55114,5.09323 h -2.86253 -2.86254 z M 49.579815,245.28634 c -2.88578,-0.65905 -4.10105,-1.04713 -4.10105,-1.30961 0,-0.12159 0.80368,-0.72909 1.78594,-1.35 0.98227,-0.62091 2.28165,-1.46833 2.88753,-1.88316 0.60587,-0.41483 1.17026,-0.75423 1.2542,-0.75423 0.0839,0 0.95744,-0.55547 1.94112,-1.23438 0.98368,-0.67891 2.26672,-1.56156 2.85121,-1.96143 0.58449,-0.39988 1.29491,-0.98363 1.57871,-1.29722 0.2838,-0.3136 1.50222,-1.35172 2.7076,-2.30694 1.20539,-0.95522 2.19161,-1.81684 2.19161,-1.9147 0,-0.2104 -15.09521,-15.31864 -28.17812,-28.20244 l -9.26042,-9.11947 1.98438,0.11923 c 2.51698,0.15124 14.8734,1.39662 17.34446,1.74812 1.02649,0.14601 3.76493,0.44799 6.08542,0.67107 2.32049,0.22308 4.90729,0.47193 5.74845,0.55301 1.03169,0.0994 1.6033,0.28755 1.75655,0.57805 0.12495,0.23686 1.01903,3.28814 1.98685,6.78064 2.13532,7.70554 2.27803,8.20468 3.44204,12.03855 0.94165,3.1015 2.91439,10.47137 3.74353,13.9853 l 0.45936,1.94676 -0.33505,1.36053 c -0.18427,0.74829 -0.60786,1.95584 -0.9413,2.68345 -0.33345,0.7276 -0.78,1.73963 -0.99236,2.24895 -0.48811,1.17074 -2.5688,3.48955 -4.03862,4.50081 -2.17334,1.4953 -5.79696,2.63208 -8.33017,2.61331 -0.80036,-0.006 -2.40771,-0.22832 -3.57187,-0.4942 z m 23.6802,-52.39283 v -38.89375 h 9.52501 9.525 v 14.94515 14.94515 l -1.52136,0.7901 c -1.66669,0.86559 -2.93399,1.60446 -3.36219,1.96024 -0.15171,0.12605 -1.54037,1.01902 -3.08591,1.98437 -4.2887,2.67875 -6.58263,4.26076 -6.58263,4.53973 0,0.13893 2.09893,1.92418 4.6643,3.96721 2.56537,2.04304 4.89573,4.00883 5.17858,4.36842 0.28285,0.35959 0.63617,0.6538 0.78514,0.6538 0.44687,0 3.6344,2.92284 3.55507,3.25986 -0.0404,0.17161 -0.0218,0.21748 0.0414,0.10194 0.14918,-0.27286 1.50574,0.75068 4.29633,3.24163 1.23693,1.10411 2.815895,2.46038 3.508825,3.01394 0.69639,0.55632 1.18103,1.13403 1.0836,1.29168 -0.0998,0.16142 -0.0534,0.20928 0.10679,0.11027 0.25068,-0.15493 1.18382,0.48383 2.45521,1.68068 3.86457,3.63795 6.67194,5.97743 5.52326,4.60271 -0.23055,-0.27592 -1.41565,-1.75183 -2.63354,-3.2798 -1.21789,-1.52797 -2.64938,-3.25437 -3.18109,-3.83646 -0.53171,-0.58208 -1.8963,-2.12989 -3.03243,-3.43958 -1.13613,-1.30969 -2.26253,-2.55984 -2.503105,-2.77812 -0.24057,-0.21829 -1.73901,-1.88012 -3.32986,-3.69297 -1.59085,-1.81285 -3.74327,-4.1941 -4.78316,-5.29167 -2.34615,-2.47627 -3.26866,-3.58295 -3.26866,-3.92121 0,-0.39293 3.78749,-3.63061 4.24715,-3.63061 0.21037,0 3.76765,3.98558 5.67472,6.35795 0.43657,0.54308 1.56766,1.84657 2.513535,2.89665 1.72578,1.91588 3.83159,4.37976 6.90197,8.07561 0.90671,1.0914 1.92672,2.2565 2.2667,2.58911 0.33998,0.3326 1.08042,1.22557 1.64542,1.98437 0.56499,0.7588 1.35034,1.6773 1.74522,2.0411 0.39488,0.3638 1.14867,1.25677 1.6751,1.98437 0.52643,0.72761 1.20022,1.56115 1.49731,1.85231 0.29708,0.29117 1.05713,1.18414 1.68899,1.98438 1.66668,2.11083 6.30782,7.3162 7.847,8.80097 l 1.32292,1.27615 1.5875,-1.66995 c 0.87312,-0.91848 1.82562,-1.96655 2.11666,-2.32904 0.80487,-1.00249 5.50475,-6.45691 5.69347,-6.60752 0.0912,-0.0728 0.74064,-0.84667 1.44328,-1.7198 0.70264,-0.87312 1.52744,-1.8349 1.83289,-2.13729 0.30545,-0.30238 1.04568,-1.13582 1.64496,-1.85208 0.59929,-0.71626 1.73038,-2.06036 2.51355,-2.98688 0.78316,-0.92653 1.69107,-2.05762 2.01758,-2.51354 0.3265,-0.45593 0.80275,-1.00891 1.05833,-1.22885 0.25558,-0.21994 0.93715,-0.99385 1.51459,-1.71979 1.3802,-1.73515 3.1644,-3.82739 7.54906,-8.85243 0.80036,-0.91726 1.89532,-2.27659 2.43324,-3.02073 1.58015,-2.18593 2.36019,-3.07278 2.70269,-3.07278 0.17673,0 0.67101,0.36782 1.09842,0.81737 1.0236,1.07663 1.99867,1.56388 3.1296,1.56388 1.70097,0 1.65133,0.081 -3.48686,5.68854 -0.53336,0.58208 -1.89142,2.1299 -3.01792,3.43958 -1.12649,1.30969 -2.69563,3.09563 -3.48697,3.96875 -1.32706,1.46421 -3.6759,4.18965 -6.35647,7.37561 -1.51718,1.80324 -2.97877,3.47679 -4.52846,5.1852 -0.72945,0.80416 -1.56288,1.75568 -1.85208,2.11448 l -0.52581,0.65237 0.96713,-0.78466 c 0.53193,-0.43156 2.19321,-1.85623 3.69175,-3.16591 1.49854,-1.30969 3.14692,-2.71688 3.66307,-3.1271 1.16526,-0.9261 3.453,-2.87803 5.03395,-4.29503 0.6579,-0.58967 1.91055,-1.66124 2.78368,-2.38125 0.87312,-0.72002 1.64703,-1.3706 1.71979,-1.44573 0.0728,-0.0751 1.20385,-1.04652 2.51354,-2.15862 1.30969,-1.1121 3.36006,-2.85684 4.55639,-3.8772 1.19633,-1.02037 3.19582,-2.66671 4.44332,-3.65854 l 2.26818,-1.80333 -0.0777,-0.6562 c -0.083,-0.70101 -1.77045,-2.13059 -3.74115,-3.16942 -0.60447,-0.31864 -1.63482,-0.92138 -2.28966,-1.33942 -0.65485,-0.41804 -2.02407,-1.24838 -3.04271,-1.8452 -1.01865,-0.59681 -2.5367,-1.50304 -3.37344,-2.01384 l -1.52135,-0.92872 V 168.9336 153.99308 l 9.45885,0.0695 9.45885,0.0695 0.067,38.82761 0.067,38.8276 H 125.11922 73.260015 Z m 26.982195,19.44048 c -0.18408,-0.2218 -0.38917,-0.34878 -0.45577,-0.28219 -0.18349,0.18349 0.18932,0.68546 0.50909,0.68546 0.17544,0 0.15537,-0.15181 -0.0533,-0.40327 z M 53.283975,191.82084 c -0.87312,-0.11525 -3.73062,-0.40114 -6.35,-0.63531 -2.61937,-0.23418 -6.60797,-0.59981 -8.86354,-0.81252 -2.25557,-0.21271 -6.24416,-0.57618 -8.86354,-0.80771 -2.61937,-0.23152 -4.79541,-0.45367 -4.83564,-0.49364 -0.0936,-0.093 1.67514,-1.61528 3.15982,-2.71954 0.63066,-0.46907 2.45634,-1.86592 4.05707,-3.10412 1.60073,-1.2382 3.38667,-2.60975 3.96875,-3.04788 0.58208,-0.43812 2.79982,-2.13689 4.92831,-3.77504 2.12849,-1.63814 4.90275,-3.75235 6.16504,-4.69824 1.26229,-0.94588 2.7468,-2.07697 3.29893,-2.51354 3.39842,-2.68712 16.01204,-12.2282 18.25656,-13.80946 l 1.57483,-1.10947 0.2525,0.31572 c 0.16947,0.21188 -0.43366,2.36062 -1.83384,6.53342 -2.27332,6.77491 -3.01984,9.09351 -3.45012,10.71563 -0.1544,0.58208 -0.50526,1.5424 -0.7797,2.13405 -0.27443,0.59165 -0.49897,1.31198 -0.49897,1.60073 0,0.28875 -0.11192,0.63812 -0.24871,0.77636 -0.13678,0.13825 -0.91782,2.27542 -1.73562,4.74927 -0.81781,2.47386 -1.77083,5.27183 -2.11783,6.21771 -0.34699,0.94589 -0.82457,2.4044 -1.06127,3.24115 l -0.43037,1.52135 -1.50258,-0.0347 c -0.82642,-0.0191 -2.21695,-0.12898 -3.09008,-0.24423 z M 184.64959,158.09316 v -14.72324 l 1.12448,0.17515 c 2.93313,0.45688 13.76165,2.45298 15.1474,2.79224 0.58208,0.1425 2.24895,0.43675 3.70416,0.65389 1.45521,0.21714 3.5388,0.56296 4.63021,0.76849 4.4869,0.84497 15.85849,2.8754 20.90208,3.73213 6.12763,1.04087 6.95708,1.21664 6.70902,1.42172 -0.22127,0.18292 -2.99581,1.29006 -5.91527,2.3604 -3.77169,1.38279 -8.15016,3.04564 -8.90353,3.38136 -0.45855,0.20435 -0.9348,0.37228 -1.05833,0.37318 -0.12353,8.9e-4 -0.53304,0.16258 -0.91002,0.3593 -0.37699,0.19672 -1.86527,0.75651 -3.3073,1.24397 -1.44202,0.48747 -2.91951,1.03942 -3.28332,1.22657 -0.3638,0.18715 -0.76252,0.341 -0.88605,0.3419 -0.12353,8.9e-4 -0.59978,0.17235 -1.05834,0.38101 -0.45855,0.20867 -2.50061,0.98912 -4.5379,1.73435 -2.03729,0.74523 -4.35901,1.59491 -5.15937,1.88818 -0.80037,0.29327 -1.8124,0.70175 -2.24896,0.90773 -0.43656,0.20598 -3.11547,1.2262 -5.95313,2.26715 -8.02232,2.94288 -8.46195,3.10781 -8.73723,3.27794 -0.16723,0.10336 -0.2586,-5.04227 -0.2586,-14.56342 z m 47.75729,-10.06841 c -1.89177,-0.34874 -4.8088,-0.88288 -6.48229,-1.18698 -1.67349,-0.3041 -4.76912,-0.91586 -6.87917,-1.35948 -2.11005,-0.44362 -4.72942,-0.95965 -5.82083,-1.14675 -1.09141,-0.18709 -2.52016,-0.45973 -3.175,-0.60585 -0.65484,-0.14613 -1.905,-0.40753 -2.77812,-0.5809 -0.87313,-0.17337 -1.72497,-0.35367 -1.89298,-0.40067 -0.18367,-0.0514 -0.37436,-1.01578 -0.47822,-2.41855 -0.095,-1.2832 -0.39845,-4.35716 -0.67431,-6.83101 -0.27587,-2.47386 -0.63316,-5.92667 -0.794,-7.67292 -0.16084,-1.74625 -0.40371,-4.00844 -0.53973,-5.02708 -0.13601,-1.01865 -0.36633,-3.10224 -0.51183,-4.63021 -0.14549,-1.52797 -0.39504,-3.90922 -0.55456,-5.29167 -0.15951,-1.38245 -0.42825,-4.18042 -0.5972,-6.21771 l -0.30717,-3.70416 -2.77813,-0.1835 c -4.96464,-0.32792 -7.50085,-0.991328 -10.11707,-2.646381 -1.37291,-0.868523 -3.60181,-3.181314 -4.61937,-4.793222 -0.7094,-1.123775 -1.76812,-4.173386 -2.05575,-5.921565 -0.20454,-1.243135 -0.67695,-1.780105 -1.38522,-1.574493 -0.26164,0.07596 -1.48774,0.208869 -2.72467,0.29536 -1.23693,0.08649 -3.0824,0.270692 -4.10104,0.409334 -2.03804,0.277388 -12.62461,1.084301 -12.73801,0.970898 -0.039,-0.03903 -0.32785,-1.137849 -0.64181,-2.441823 -0.31397,-1.303973 -0.97969,-3.843589 -1.47939,-5.64359 -0.49969,-1.800001 -0.85812,-3.323142 -0.7965,-3.384758 0.0616,-0.06162 1.70436,-0.521445 3.65054,-1.021842 4.85525,-1.248371 5.55612,-1.449792 10.82616,-3.111296 2.54022,-0.800867 5.51156,-1.72189 6.60297,-2.046719 1.0914,-0.324829 2.01713,-0.618319 2.05717,-0.6522 0.04,-0.03388 -0.16833,-0.624105 -0.46303,-1.31161 -0.63098,-1.472023 -0.6838,-2.903994 -0.1539,-4.17223 0.39481,-0.944912 2.29422,-2.85474 2.83916,-2.85474 0.17003,0 0.4971,-0.166718 0.72684,-0.370485 1.03505,-0.918027 7.26612,-1.947743 9.56338,-1.580396 l 1.06575,0.17042 -0.58777,0.625647 c -0.32327,0.344106 -0.68376,0.625647 -0.80109,0.625647 -0.21307,0 -2.34638,1.294364 -4.30052,2.609298 -1.01259,0.681367 -2.53695,3.265678 -2.53745,4.301855 l -2.1e-4,0.428862 1.12448,-0.210906 c 0.61846,-0.115998 1.42213,-0.324132 1.78593,-0.462521 0.36381,-0.138388 2.11715,-0.625173 3.89633,-1.081744 1.77917,-0.456571 4.57714,-1.287411 6.21771,-1.84631 1.64056,-0.558899 4.17346,-1.337524 5.62867,-1.730276 1.45521,-0.392753 2.88396,-0.820788 3.175,-0.951189 0.75866,-0.339914 6.08611,-2.033129 7.80521,-2.480713 0.80036,-0.208384 3.47927,-1.034434 5.95312,-1.835669 2.47386,-0.801235 4.89384,-1.53819 5.37775,-1.63768 l 0.87982,-0.180889 -0.40245,0.778252 c -0.80702,1.560611 -1.53345,4.976872 -1.67379,7.871505 l -0.14109,2.910417 0.68557,3.307291 c 0.77178,3.723174 1.76063,5.992963 3.87068,8.884639 l 1.33606,1.830985 -3.24648,0.171529 c -1.78557,0.09434 -4.02039,0.293017 -4.96627,0.441503 -0.94589,0.148487 -2.6723,0.343021 -3.83646,0.432299 -1.16417,0.08928 -2.89057,0.274916 -3.83646,0.412528 -0.94589,0.137612 -3.08901,0.37465 -4.7625,0.526752 -1.67349,0.152101 -4.65005,0.450808 -6.61458,0.663792 -14.27566,1.547692 -14.41194,1.556664 -15.25502,1.004259 -0.39903,-0.261458 -0.87397,-0.33163 -1.42516,-0.210568 l -0.82669,0.181571 0.17504,0.701709 c 0.61118,2.450108 3.11199,5.435358 6.17965,7.376727 2.26233,1.431717 4.30827,2.736167 5.26008,3.353719 0.47013,0.305028 1.29885,1.149909 1.8416,1.877513 0.54275,0.727604 1.35032,1.739635 1.79461,2.248954 0.44428,0.50933 1.37363,1.75948 2.06521,2.77813 3.52023,5.18502 7.3293,10.57154 9.64953,13.6457 0.76399,1.01223 1.38906,1.89546 1.38906,1.96273 0,0.0673 1.0688,1.58353 2.3751,3.36944 1.3063,1.78592 2.92062,4.02104 3.58737,4.96692 1.73913,2.46719 4.38497,6.1339 4.66475,6.46458 0.13136,0.15526 1.45515,2.00928 2.94175,4.12004 1.4866,2.11077 3.40809,4.78967 4.26998,5.95313 2.25337,3.04182 3.46477,4.7131 3.69079,5.09194 0.26096,0.43739 -0.0605,0.4104 -4.19953,-0.35262 z M 77.228765,117.75206 V 87.060181 h 3.58038 3.58037 l 0.9276,-0.387574 0.92759,-0.387574 -0.0762,-2.456696 -0.0762,-2.456697 -7.43386,-0.0702 -7.43385,-0.0702 -0.35974,-0.723553 -0.35973,-0.723553 -0.0953,0.727604 -0.0953,0.727604 h -2.62825 -2.62826 v -0.375235 c 0,-0.206379 0.0692,-0.555539 0.15375,-0.77591 0.24488,-0.638145 3.9455,-3.580361 5.60621,-4.457282 0.83385,-0.4403 1.87327,-1.068253 2.30983,-1.39545 0.43656,-0.327197 1.39082,-0.907074 2.12058,-1.288615 l 1.32682,-0.693713 2.37734,0.285797 c 2.34368,0.281749 14.08995,0.375637 16.66485,0.133203 0.7276,-0.06851 2.632595,-0.20178 4.233325,-0.296163 1.60073,-0.09438 3.2676,-0.2728 3.70417,-0.396482 0.43656,-0.123681 2.10343,-0.294966 3.70416,-0.380631 4.16216,-0.222745 18.85057,-1.972284 21.56354,-2.568437 0.65484,-0.143896 2.09654,-0.365655 3.20377,-0.492798 1.10723,-0.127143 2.83364,-0.412233 3.83646,-0.633533 3.91972,-0.864996 6.91894,-1.47975 8.4379,-1.729526 2.41622,-0.397323 5.87217,-1.188057 10.9802,-2.512317 2.54662,-0.66021 4.9874,-1.209351 5.42396,-1.220314 1.04763,-0.02631 3.39863,0.590067 4.94642,1.296829 0.68324,0.311985 1.30116,0.567245 1.37316,0.567245 0.072,0 1.26989,0.535781 2.66199,1.190625 1.39211,0.654844 2.61965,1.191409 2.72789,1.192368 0.10823,9.59e-4 0.53553,0.225078 0.94955,0.498042 l 0.75276,0.496297 -1.14963,0.547315 c -3.9681,1.889118 -9.3547,3.6245 -15.80963,5.093339 -1.8056,0.41087 -3.4525,0.812113 -3.65978,0.891653 l -0.37687,0.144617 0.0523,7.20985 c 0.0288,3.965418 0.0385,7.537273 0.0218,7.937455 l -0.0305,0.727604 -7.47448,-7.3e-5 -7.47448,-7.4e-5 0.0714,12.038612 0.0714,12.03862 h 3.96349 3.96349 v -9.12812 -9.128132 h 1.85854 1.85855 l -0.0202,9.061982 -0.0202,9.06198 4.37937,0.0725 4.37938,0.0725 0.0305,-10.5236 c 0.0168,-5.787964 0.009,-10.731936 -0.0166,-10.986597 -0.0259,-0.254662 -0.01,-0.465621 0.0357,-0.468798 0.0455,-0.0032 3.2677,-0.08073 7.16038,-0.172348 l 7.07761,-0.16657 v 28.216533 28.21652 l -47.88959,0.002 -47.889575,0.002 z M 149.06313,80.181015 c 0,-3.292234 -0.0958,-5.143611 -0.26458,-5.115815 -0.14552,0.02396 -2.11005,0.34774 -4.36562,0.719516 -5.63519,0.928822 -9.07696,1.432644 -12.96459,1.897816 -1.81901,0.217653 -3.48588,0.449636 -3.70416,0.515519 -0.60073,0.181314 -10.27136,1.16478 -18.25625,1.85659 -4.00515,0.347006 -16.489325,1.184707 -17.655565,1.184707 h -1.39443 l -0.0336,0.463021 c -0.11571,1.592637 0.0623,3.360699 0.3572,3.548448 0.18585,0.118307 13.375235,0.18686 29.309765,0.152339 l 28.97187,-0.06277 z m 91.94271,0.813429 c -1.93571,-0.440068 -3.47559,-1.360355 -5.257,-3.141759 -3.10217,-3.102172 -4.26964,-6.337423 -4.46729,-12.379523 l -0.12193,-3.727645 0.68684,-2.659712 c 0.37776,-1.462841 0.92945,-3.225697 1.22597,-3.917457 0.81915,-1.910999 2.95036,-4.209259 4.69472,-5.062691 l 1.49145,-0.7297 h 2.29511 2.29512 l 1.77147,0.899149 c 2.13755,1.084965 3.86428,2.89324 5.23047,5.477474 1.14785,2.171228 2.18623,5.589958 2.43722,8.024269 0.20159,1.955178 -0.19616,6.017735 -0.80207,8.192159 -1.01001,3.624633 -3.46816,6.996331 -6.05612,8.306814 -1.45089,0.734695 -3.91641,1.061353 -5.42396,0.718622 z m 4.85944,-3.824315 c 1.73444,-0.724694 3.36535,-2.913843 4.00749,-5.379194 0.42525,-1.632621 0.53398,-4.574502 0.16908,-4.574502 -0.12342,0 -0.45075,0.501955 -0.7274,1.115456 -0.27665,0.6135 -0.89401,1.506469 -1.37192,1.984374 l -0.86891,0.868919 h -1.20797 c -2.41092,0 -3.94631,-1.336762 -5.21809,-4.543042 l -0.70005,-1.764918 v -2.125651 -2.12565 l 0.62731,-1.728236 c 0.78335,-2.158097 1.8112,-3.527879 3.02906,-4.036736 l 0.94079,-0.393087 1.43521,0.179317 1.43522,0.179318 -0.10749,-0.353469 c -0.0591,-0.194409 -0.75706,-0.689029 -1.55098,-1.099157 l -1.4435,-0.745686 -1.29516,0.164579 c -1.64676,0.209259 -2.9201,0.861684 -4.49163,2.301384 l -1.24665,1.142077 -0.63019,1.852083 c -0.35707,1.049375 -0.76477,3.170819 -0.94069,4.894791 l -0.31049,3.042709 0.69593,2.645833 c 0.38277,1.455208 1.07231,3.267614 1.53231,4.027568 1.55787,2.573697 4.52363,4.680471 6.76121,4.802928 0.3321,0.01817 0.99698,-0.131229 1.47751,-0.332008 z M 93.368355,69.208895 c -7.75909,-0.76323 -8.67185,-0.888541 -8.8758,-1.218539 -0.2044,-0.330734 -1.7719,-8.377019 -2.77948,-14.267673 -0.43559,-2.546614 -1.02725,-5.939895 -1.31479,-7.540624 -0.28754,-1.600729 -0.82245,-4.755886 -1.1887,-7.011458 -0.36624,-2.255573 -0.89714,-5.410729 -1.17978,-7.011458 -0.28263,-1.600729 -0.76835,-4.398698 -1.07937,-6.217708 -0.31102,-1.819011 -0.72962,-4.200261 -0.93022,-5.291667 -0.20061,-1.091406 -0.4428,-2.609453 -0.53822,-3.373437 l -0.17348,-1.389062 h 36.793335 36.79333 l 0.12997,0.46302 c 0.0715,0.254662 0.20466,2.010834 0.29594,3.902604 0.0913,1.891771 0.33212,4.868333 0.5352,6.614583 0.20308,1.74625 0.44287,4.246563 0.53288,5.55625 0.21965,3.196019 1.43768,15.772723 1.5759,16.271874 0.0604,0.218281 0.23959,2.242344 0.39811,4.497917 0.15852,2.255572 0.33734,4.40978 0.39739,4.787127 l 0.10919,0.686086 -1.63873,0.736418 c -0.9013,0.40503 -1.95122,0.897876 -2.33316,1.095214 -0.83071,0.429209 -7.17345,2.623052 -9.22537,3.190897 -0.79923,0.221176 -1.64552,0.505099 -1.88066,0.630942 -0.62223,0.333006 -7.18882,2.003289 -10.91799,2.777109 -8.29169,1.720562 -14.62763,2.498869 -21.46696,2.637003 l -5.55625,0.112219 z" /></g></svg>
